<?xml version="1.0" encoding="utf-8"?>
<!-- Generator: Adobe Illustrator 23.0.1, SVG Export Plug-In . SVG Version: 6.00 Build 0)  -->
<svg version="1.1" id="Layer_1" xmlns="http://www.w3.org/2000/svg" xmlns:xlink="http://www.w3.org/1999/xlink" x="0px" y="0px"
	 viewBox="0 0 323.1 195" style="enable-background:new 0 0 323.1 195;" xml:space="preserve">
<style type="text/css">
	.st0{fill:#42210B;}
	.st1{fill:#99FFFF;}
</style>
<rect x="-0.4" y="0" class="st0" width="324" height="195"/>
<g>
	<path class="st1" d="M133.9,32c-1.1-0.1-2-0.3-2.9-0.3c-0.8-0.1-1.6-0.1-2.5-0.1c-1-0.1-1.9-0.2-2.9-0.1c-1,0.1-1.9,0.1-2.9,0.1
		c-2-0.1-4.3,0.1-6.8,0.7c-2.2,0.6-4.3,1.1-6.4,1.6c-2.1,0.4-4.2,0.9-6.2,1.3c-3.7,0.7-6.5,1.4-8.4,1.9c-1.9,0.5-3.4,1.3-4.5,2.3
		c-1.1,1-2.1,2.4-3,4.1c-0.9,1.7-2.2,4.1-4,7c-1,1.9-1.8,3.8-2.7,5.7c-0.8,1.9-1.7,3.7-2.7,5.5c-2.5,3.3-4.5,6.7-6,10.4
		c-1.6,3.6-2.3,6.6-2.3,8.9c0.1,2.3,1.3,3.6,3.6,3.9c2.3,0.3,6.3-1.2,11.9-4.5c1.2-0.4,2.5-0.8,3.7-1.1c1.2-0.3,2.5-1,3.7-2.2
		c0.4-0.4,1-0.7,1.6-0.7l6.8-2c1.1-0.3,2-1,2.9-2c-1,0.3-1.8,0.6-2.5,0.9c-0.7,0.3-1.4,0.1-2-0.7l3.7-1.6c1.2-0.3,2.5-0.7,3.7-1.1
		c1.2-0.4,2.5-0.9,3.7-1.3c0.4-0.1,0.8-0.3,1.2-0.6c0.4-0.2,0.7-0.7,1-1.5l-3.3,0.7c-1,0.3-1.9,0.6-2.8,0.8c-0.9,0.2-1.5,0-1.9-0.8
		c2-0.7,4.1-1.5,6.1-2.2c2-0.7,4.2-1.6,6.3-2.5l13.1-5.8c4-1.9,7.4-5,10.4-9.1c0.7-1.2,1.3-2.3,1.7-3.2c0.5-1,0.5-1.9,0.1-2.8
		c-1.1-3-2.9-4.8-5.5-5.4L137,36l1-0.9l-2.7-0.4l1.6-1.1c-0.7-0.1-1.4-0.2-2.1-0.1c-0.8,0.1-1.5,0.2-2.3,0.3
		c-0.8,0.2-1.5,0.2-2.3,0.2c-0.8,0-1.4-0.1-1.9-0.4c0.8,0,1.6,0,2.5-0.1C131.7,33.3,132.7,32.8,133.9,32z"/>
	<path class="st1" d="M271.3,164.5c-1.9-2.8-3.7-5.7-5.4-8.6c-1.7-2.9-3.3-5.8-4.8-8.8c-1.6-1.3-3.1-3.6-4.3-6.9
		c-1.2-3.3-2.4-6.8-3.5-10.6c-1.1-3.8-2.1-7.5-3.2-11.2c-1-3.6-2.2-6.6-3.5-8.8c-1.3-2.2-2.8-3.4-4.4-3.5c-1.6-0.1-3.6,1.5-5.9,4.8
		c-0.1,0-0.2,0-0.3,0.1c-0.1,0.1-0.2,0.1-0.3,0.1c-0.5,1.3-1.3,2.6-2.3,3.8c-0.8,1-1.8,2.1-2.9,3.1c0.4,0.2,0.7,0.2,1,0.2
		c0.3,0,0.5,0.1,0.8,0.2c0,0.3-0.1,0.4-0.2,0.4c-2.9,3-5.6,6-8.2,9c-2.6,3.1-5.1,6.1-7.6,9.3c-1.2,1.6-2.3,3.3-3.2,5.1
		c-0.9,1.8-1.9,3.5-3,5.1c-0.8,1.3-1.7,2.6-2.6,3.9c-0.9,1.3-1.7,2.5-2.6,3.7c-0.8,1.3-1.7,2.5-2.7,3.6c-1,1.3-2,2.5-3.3,3.5
		c-1.2,1-2.5,1.8-3.7,2.6c-1.1,0.7-2.3,1.2-3.5,1.2c-1.2,0.1-2.5,0.3-3.7,0.6c-0.5,0.1-1.3,0.2-2.3,0.2c-1.1,0.1-1.7,0.1-1.9-0.1
		c-0.2-0.2-0.3-0.8-0.3-1.7c0-1,0-2-0.1-2.9c-0.1-0.9,0-1.8,0.3-2.7c0.7-4.6,1.8-9.2,3.5-13.7c1.6-4.5,3.8-9,6.3-13.5l1-0.9
		c-0.3,0.7-0.5,1.4-0.8,2c-0.3,0.6-0.5,1.2-0.8,1.8c-0.1,0.3-0.3,0.6-0.4,1c-0.1,0.4-0.2,0.7-0.2,1c0.1,1.5-0.6,3-2.3,4.5
		c0,0.4,0,0.9,0.1,1.3c0.1,0.4,0.1,1,0.1,1.6l6.8-12.9c1.1-2.1,2.2-4.1,3.3-6.1c1.1-2,2.2-4.1,3.3-6.1c0-0.1,0-0.2-0.1-0.2
		c-0.1,0-0.1-0.1-0.1-0.2l-7.8,10.7c1.2-2.5,2.5-4.9,3.9-7.1c1.4-2.2,2.9-4.5,4.7-6.7l15.6-20.8c1.4-1.8,2.6-3.6,3.7-5.4
		c1.1-1.8,2.3-3.6,3.5-5.4c1.6-2.7,2.8-4.6,3.4-5.8c0.6-1.2,0.9-2.3,0.7-3.2c-0.1-1-0.5-2.1-1.2-3.3c-0.7-1.3-1.5-3.3-2.5-6.1
		c-1.4-3.1-2.7-6.3-4.1-9.5c-1.4-3.2-2.6-6.4-3.7-9.7c-0.5-1.6-0.9-3.3-0.9-5c-0.1-1.7-0.2-3.4-0.5-5c-0.1-0.1-0.1-0.5,0.2-1.1
		c1.1-0.7,1.9-1,2.5-0.7c0.5,0.3,1,0.7,1.2,1.3c0.5,0.9,1.1,1.8,1.6,2.7c0.5,0.9,1.1,1.9,1.6,2.9c1.4,1.5,2.7,3.8,3.9,6.9
		c1.2,3.1,2.5,6.1,3.7,8.9c1.2,2.8,2.6,5,4.1,6.6c1.5,1.6,3.2,1.5,5.1-0.3c2.7-3.4,5.6-6.7,8.6-9.8c3-3.1,6.1-6.2,9.2-9.1
		c3.3-3,6.5-6.1,9.7-9.3c2.2-2.2,4.3-4.3,6.5-6.5C247.1,11.1,206.5,0,161.6,0C122.9,0,87.5,8.2,59.7,21.8l10.8-2.4
		c0.8-0.3,1.4-0.6,1.6-0.9c1.1-0.9,2.1-1.4,3-1.6c0.9-0.1,1.9-0.4,3-0.7l16.4-2.7c1.8-0.3,3.5-0.6,5.2-0.9c1.7-0.3,3.4-0.6,5.2-0.9
		c0.7-0.1,1.3-0.1,1.7,0c0.5,0.1,1,0.2,1.5,0.2h4.7c0.8,0,1.6,0,2.4,0c0.7,0,1.5-0.1,2.4-0.4c1.9-0.3,3.7-0.4,5.4-0.2
		c1.7,0.1,3.4,0.4,5,0.7l5.5,0.9c0.5,0,1.1-0.1,1.6-0.4l-3.7-1.3c-1.4-0.3-2.7-0.6-4.1-0.8c-1.4-0.2-2.7-0.5-4.1-0.8
		c-0.3,0-0.5-0.1-0.6-0.2c-0.1-0.1-0.3-0.3-0.6-0.4c2.7,0.2,5.4,0.5,7.9,1.1c2.5,0.6,4.9,1.4,7.3,2.5l9.2,4c0.4,0.3,0.7,0.6,1,0.8
		c0.3,0.2,0.5,0.5,0.8,0.8c0.4,0.3,0.7,0.6,0.9,1c0.2,0.4,0.7,0.4,1.5,0.1c0.1,0,0.2,0.1,0.2,0.2c0.7,1,1.5,1.9,2.6,2.5
		c1,0.6,1.7,1.5,2.1,2.7c0.4,1.2,0.9,2.2,1.3,3.1c0.5,0.9,0.9,1.9,1.1,3.1c0.7,2.5,0.6,5.2-0.1,7.9c-0.8,2.8-1.9,5.6-3.4,8.6
		c-0.7,1.3-1.5,2.6-2.6,3.8c-1,1.2-1.9,2.5-2.6,3.8c-0.3,0.6-0.5,1.2-0.8,1.8c-0.3,0.6-0.8,1.2-1.4,1.8c-1.1,1.2-2.2,2.3-3.4,3.5
		c-1.2,1.1-2.4,2-3.8,2.8l-1.2,0.9v0.7l2-1.1c0.1,0.2,0.2,0.3,0.2,0.4c-0.7,0.3-1.4,0.7-2.1,1.1c-0.8,0.4-1.5,0.9-2.1,1.3l-4.7,2.2
		c0.7,0.4,1.4,0.4,2.3,0c0.8-0.4,1.6-0.5,2.3-0.2c-0.8,0.7-1.6,1.2-2.3,1.3c-0.7,0.1-1.4,0.4-2,0.7l-3.3,1.1l-5.5,2.2v2.2
		c-0.8,0.3-1.6,0.5-2.5,0.7c-0.8,0.1-1.7,0.4-2.7,0.7c-0.8,0.3-1.7,0.7-2.6,1.1c-0.9,0.4-1.7,0.8-2.6,1.1v0.7
		c0.7-0.3,1.3-0.5,1.9-0.7c0.6-0.1,1.4-0.4,2.4-0.7c-2,1-4,1.9-5.7,2.7c-1.8,0.7-3.6,1.3-5.3,1.8c-2,0.4-4.1,1-6.1,1.7
		c-2,0.7-4.1,1.3-6.1,1.9c-0.1,0-0.3,0.1-0.6,0.4l0.6,1.3L82.3,94c-0.7,0.3-1.3,0.5-1.9,0.6c-0.6,0.1-1.2,0-1.7-0.3
		c-0.3-0.1-0.6-0.3-1-0.3c-0.4-0.1-0.9,0.2-1.4,0.8c-0.3,0.3-0.8,0.4-1.4,0.4c-1.1-0.3-2.3-0.3-3.5,0.1c-1.2,0.4-2.5,0.7-3.9,1
		l-5.7,1.6l1.8,0.7l-3.3,2.5c0.4,0.4,0.8,0.7,1.2,0.7s1.6-0.1,3.5-0.4l0.2-0.2v0.2h-0.2c-0.3,0.6-0.5,0.9-0.8,0.9c-0.3,0-0.6,0-1,0
		c-0.7,0.1-1.3,0.2-1.7,0.2c-0.5,0-1.1,0-1.7,0c-0.7,1.2-0.5,1.6,0.6,1.3c1.2-0.4,2.5-0.7,3.9-0.7l-1,0.7c-1.4,0.3-2.3,0.7-2.9,1.2
		c-0.5,0.5-1.2,1.5-1.8,2.8l-0.2,0.4c0.3,0.9,0.1,1.8-0.4,2.7c-0.5,0.9-1,1.7-1.4,2.5v0.4l-0.6,3.1c-0.1,0.6-0.4,1.2-0.8,1.7
		c-0.4,0.5-0.5,1.1-0.2,1.7c0,0.4-0.1,0.7-0.2,0.9c-0.7,1.2-1.1,2.3-1.3,3.2c-0.2,1-0.4,2-0.7,3c-0.3,1.3-0.6,2.7-1,4.1
		c-0.4,1.4-0.8,2.8-1.2,4.1c-0.4,1.5-0.9,2.9-1.3,4.4c-0.5,1.4-0.8,2.8-0.9,4.1c-0.3,2.1-0.7,4.1-1.2,6c-0.5,1.9-1,3.9-1.4,6
		c-0.1,0.7-0.2,1.4-0.1,1.9c0.1,0.5,0,1.1-0.1,1.7c-0.3,1.5-1,2.4-2,2.7h-0.2c-0.2,0.3-0.5,0.6-0.7,0.9
		c29.5,19.6,72.1,31.9,119.5,31.9c44.2,0,84.2-10.7,113.3-28C273.4,166.6,272.2,165.8,271.3,164.5z M182.7,142.9
		c-0.3,0.4-0.4,1-0.5,1.6c-0.1,0.6-0.2,1-0.5,1.3c-1.6,2.2-2.3,4.1-1.8,5.6c0.3,0.9-0.2,1.7-1.4,2.5c-0.8,0.3-1.6,0.6-2.3,0.8
		c-0.7,0.2-1.2,0-1.4-0.6c-1-1.2-2.8-1.6-5.5-1.1l-13.1,2c-2.7,0.4-5.4,0.9-8.1,1.5c-2.7,0.5-5.3,0.9-7.9,1.2
		c-2,0.3-4.1,0.5-6.2,0.6c-2.1,0.1-4.3,0.3-6.7,0.6c-1.1,0-2.2-0.4-3.3-1.1c-1.5-0.7-2.3-1.6-2.4-2.6c-0.1-1,0.4-2.5,1.5-4.6
		l3.5-5.6c0.5-1,1.2-1.7,1.8-2c1.4-0.7,2.7-1.5,4.1-2.1c1.4-0.7,2.7-1.3,4.1-1.9c1.4-0.6,2.7-1.1,3.9-1.5c1.2-0.4,2.5-0.8,3.9-1.2
		c1-0.3,2.1-1,3.5-2l1.2-1.8c0.7-1.9,1.3-3.8,1.7-5.7c0.5-1.9,1-3.7,1.5-5.5c0.4-2.4,0.9-4.7,1.4-6.9c0.5-2.2,1.3-4.6,2.3-7.1
		c0.3-0.3,0.5-0.6,0.6-1c0.1-0.4,0.3-0.7,0.6-1c1.4-2.1,2.3-4.1,2.9-6.1c0.5-2,1-4,1.4-5.9c0.4-1.6,0.8-3.1,1.1-4.5
		c0.3-1.3,0.9-2.8,1.5-4.5c0.4-1,0.6-2,0.6-2.9c0-0.9,0.1-1.9,0.4-2.9c0.3-1.2,0.4-2.3,0.4-3.3c0-1,0.1-2.2,0.4-3.3
		c0.3-1,0.4-1.9,0.5-2.5c0.1-0.6,0.2-1.1,0.3-1.5c0.1-0.4,0.2-0.8,0.3-1.3c0.1-0.5,0.2-1.3,0.5-2.3c1-3.7,1.4-6.4,1.2-7.9
		c-0.1-1.6-0.7-2.6-1.7-3c-1-0.4-2.4-0.7-4.2-0.8c-1.8-0.1-3.9-0.5-6.3-1.2c-0.1,0-0.2-0.3-0.2-0.8c0-0.5,0-1.1,0.1-1.7
		c0.1-0.6,0.1-1.2,0.1-1.7c0-0.5-0.1-0.8-0.2-0.8c1-0.6,1.8-1.1,2.5-1.6l2.5-1.3c0.3-0.4,0.3-0.7,0-0.9c-0.3-0.1-0.6-0.2-1-0.2
		c-0.4,0-0.8,0-1.1-0.1c-0.3-0.1-0.4-0.3-0.1-0.8c0.3-0.3,0.5-0.6,0.6-0.8c0.1-0.2,0.3-0.5,0.6-0.8c1.6-1.2,2.6-2.7,2.9-4.5
		c1.8-1.6,3.5-2.6,5.1-2.9c1.6-0.3,3.2-0.7,4.7-1.1c3.1-1.2,6.2-2.2,9.2-3c3-0.8,6.1-1.7,9.2-2.6c1.9-0.6,3.8-0.9,5.6-1
		c1.8-0.1,3.5,0.2,5,0.8c1.9,0.4,3.3,1.3,4.2,2.7c0.9,1.3,1.1,3.2,0.7,5.6c-0.1,0.7-0.2,1.5-0.1,2.1c0.1,0.7,0.4,1.2,0.9,1.5
		c0.5,0.3,0.7,1.3,0.4,2.9c-0.3,1.6-0.5,2.8-0.8,3.6c-1.5,0.6-3.2,1-5.1,1.3c-1.9,0.3-3.8,0.7-5.6,1.1c-1.8,0.4-3.5,1.1-4.9,2
		c-1.4,0.9-2.5,2.2-3.2,4c-0.3,1.2-0.5,2.1-0.7,2.8s-0.4,1.3-0.6,2c-0.2,0.7-0.4,1.4-0.6,2.1c-0.2,0.7-0.4,1.7-0.7,2.9l-5.7,24.8
		c-0.3,1.3-0.5,2.7-0.7,4c-0.2,1.3-0.5,2.8-0.9,4.2l-4.5,15c-0.7,1.8-1.5,4-2.5,6.6c-1,2.6-1.6,5-1.9,7.1c-0.3,2.2-0.1,3.9,0.6,5.2
		c0.7,1.3,2.6,1.7,5.4,1.1c1.4-0.1,2.7-0.1,3.9,0c1.2,0.1,2.4,0.3,3.5,0.4c0,0.7,0,1.5-0.1,2.2c-0.1,0.7,0.4,1,1.5,0.7
		c-0.3,0.4-0.5,0.9-0.6,1.3c-0.1,0.4-0.1,0.8,0,1.1c0.3,1,0.2,2.2-0.2,3.3C183.3,140.5,182.9,141.7,182.7,142.9z"/>
	<path class="st1" d="M165.9,46.7c0,0.1-0.1,0.3-0.2,0.4l2.5-0.4v-0.4c-0.4,0-0.8,0.1-1,0.2C166.5,46.5,166.1,46.5,165.9,46.7z"/>
	<path class="st1" d="M22,145c1.4-5.3,2.9-10.6,4.4-16l4.5-15c1-3,1.8-6,2.5-9.1c0.3-1.8,0.7-3.6,1.4-5.4c0.7-1.8,1.4-3.6,2-5.4
		c0-0.4,0.1-0.7,0.4-0.7c1.1-0.7,1.8-1.6,2.1-2.7c0.3-1,0.6-2,0.9-2.9L50,65.2c2-4.6,3.9-8.4,5.6-11.3c1.7-2.9,2.6-5.1,2.7-6.5
		c0.1-1.4-1-2.1-3.1-2c-2.1,0.1-5.9,0.9-11.4,2.3c-1.4,0.3-2.3-0.1-2.7-1.3c-1-2.8-1.1-6.2-0.4-10.3c0.2-1.3,0.5-2.6,0.7-3.9
		C15.7,49.5,0,72.4,0,97.5c0,17.8,7.9,34.5,21.7,48.8C21.8,145.9,21.9,145.4,22,145z"/>
	<path class="st1" d="M191,43.6l5.7-1.8c-1.2-0.3-2.3-0.6-3.2-1c-0.9-0.4-2.1,0-3.6,1.2C189.3,43.2,189.7,43.7,191,43.6z"/>
	<path class="st1" d="M168.5,149.3c-0.5-0.1-1.1-0.2-1.6-0.1c-0.5,0.1-1.2,0.2-1.8,0.3c-0.5,0-1.1,0.1-1.6,0.2
		c-0.5,0.1-1,0.1-1.4-0.2l5.5-0.7c-0.4-0.7-0.9-1.1-1.3-1c-0.5,0.1-1.1,0.2-1.7,0.3c-1.2,0.3-2.5,0.5-3.7,0.7
		c-1.2,0.1-2.5,0.4-3.9,0.7c-0.3,0.2-0.5,0.2-0.8,0.2c-0.3,0-0.5,0.1-0.8,0.4c-1.1,0.6-2,1-2.9,1.1c-0.8,0.1-1.7,0.4-2.7,0.7
		c-2.3,0.3-4.7,0.6-7.1,0.9c-2.4,0.3-4.6,0.6-6.7,0.9c-0.5,0.1-1.1,0.3-1.6,0.6c-0.5,0.2-1.1,0.7-1.6,1.5l0.6,0.4c1.1,0,2.1,0,3,0.1
		c0.9,0.1,1.9,0.1,3,0.1l10.9-1.3c1.1-0.1,2.1-0.3,3.2-0.3c1-0.1,2.1-0.3,3.2-0.6c1-0.3,1.9-0.6,2.9-0.8c1-0.2,2-0.6,3.1-1.2
		c0.8-0.3,1.6-0.4,2.4-0.4c0.7,0,1.5-0.1,2.4-0.2c1-0.3,1.7-0.5,2.4-0.6c0.6-0.1,1.5-0.6,2.6-1.5c-0.7,0-1.3,0-1.8-0.1
		C169.6,149.4,169.1,149.3,168.5,149.3z"/>
	<path class="st1" d="M63.6,94.2c-0.2,0.3-0.4,1-0.7,2.2l3.3-0.7l0.2-0.4l-2.3-0.4l0.4-0.7c1.4,0.3,2.8,0.3,4.2-0.1
		c1.4-0.4,2.9-0.7,4.4-1c1.5-0.3,3-0.5,4.4-0.6c1.4-0.1,3.1-0.5,5-1.2c-1.5-0.7-2.5-1.1-3-1.1c-0.5,0-1.3,0.1-2.6,0.4
		c-1.9,0.4-3.9,0.9-5.9,1.3c-2,0.4-4.1,1-6.1,1.6C64.3,93.7,63.8,93.9,63.6,94.2z"/>
	<path class="st1" d="M84.4,89.3c0-0.1,0-0.2,0.1-0.2c0.1,0,0.1-0.1,0.1-0.2l-2.5,0.7v0.2C82.5,89.8,83.3,89.6,84.4,89.3z"/>
	<path class="st1" d="M299.8,47c-0.4,1.2-1.3,2.3-2.5,3.2l-10.9,8.9c-2.2,1.8-4.4,3.5-6.7,5.1c-2.3,1.6-4.6,3.2-7.1,4.7
		c-1.1,0.7-2.1,1.6-3.1,2.6c-1,1-2,1.9-3.1,2.8L266,75c0,1.2-0.4,2.1-1.1,2.7c-0.8,0.6-1.5,1.3-2.1,2c-2.6,2.7-4.7,4.7-6.3,5.9
		c-1.6,1.3-2.8,2.5-3.4,3.6c-0.6,1.1-0.8,2.5-0.4,4.2c0.3,1.7,1.2,4.3,2.6,7.7l5.1,13.8c1,2.5,1.8,5.1,2.7,7.6
		c0.8,2.5,1.8,5,2.9,7.4c1.4,3,2.8,5.9,4.2,8.8c1.4,2.9,3,5.8,4.6,8.6c1.1,1.8,2.3,3.5,3.7,5.1c1.4,1.6,2.7,3.3,4.1,4.9
		c0.4,0.6,0.9,1,1.5,1.3c0.6,0.3,1.2,0.7,1.7,1.1c0,0,0,0.1,0,0.1c23.4-16.9,37.5-38.7,37.5-62.5C323.1,79,314.6,61.7,299.8,47z"/>
	<path class="st1" d="M104.2,83.1c0.7-0.1,1.6-0.5,2.7-1.1c-0.4,0-0.9,0-1.3,0C105.1,81.9,104.7,82.3,104.2,83.1z"/>
	<path class="st1" d="M95,85c-0.7,0.2-1.4,0.6-2,1l3.7-0.7C96.3,84.8,95.7,84.7,95,85z"/>
	<path class="st1" d="M96.7,85.3c0.5-0.1,1.2-0.2,2-0.2s1.7-0.1,2.6-0.3c0.9-0.2,1.8-0.7,2.8-1.5C101.6,82.8,99.1,83.5,96.7,85.3z"
		/>
</g>
</svg>
