<?xml version="1.0" encoding="utf-8"?>
<!-- Generator: Adobe Illustrator 23.0.1, SVG Export Plug-In . SVG Version: 6.00 Build 0)  -->
<svg version="1.1" id="Layer_1" xmlns="http://www.w3.org/2000/svg" xmlns:xlink="http://www.w3.org/1999/xlink" x="0px" y="0px"
	 viewBox="0 0 1138.2 432.7" style="enable-background:new 0 0 1138.2 432.7;" xml:space="preserve">
<style type="text/css">
	.st0{fill:#6BDDDD;stroke:#FFFFFF;stroke-width:5;stroke-miterlimit:10;}
	.st1{fill:#E8C367;stroke:#FFFFFF;stroke-width:5;stroke-miterlimit:10;}
</style>
<path d="M48.4,395.5"/>
<path class="st0" d="M38.5,421.5L38.5,421.5c19.9,0,36-16.1,36-36v-347c0-19.9-16.1-36-36-36h0c-19.9,0-36,16.1-36,36v347
	C2.5,405.4,18.6,421.5,38.5,421.5z"/>
<path class="st0" d="M292.1,423L292.1,423c19.9,0,36-16.1,36-36V255c0-19.9-16.1-36-36-36h0c-19.9,0-36,16.1-36,36v132
	C256,406.9,272.2,423,292.1,423z"/>
<path class="st1" d="M987,244.4L987,244.4c0,10.7,1.4,20.7,13.5,20.7l80.9-0.1c12.2,0,22.1-8.7,22-19.3v0c0-10.7-9.9-19.3-22.1-19.3
	l-80.9,0.1C988.3,226.6,987,233.8,987,244.4z"/>
<path class="st1" d="M723.7,420h-11.1c-14.7,0-26.6-11.9-26.6-26.6V242.6c0-14.7,11.9-26.6,26.6-26.6h11.1
	c14.7,0,26.6,11.9,26.6,26.6v150.7C750.3,408.1,738.4,420,723.7,420z"/>
<path class="st0" d="M535.2,224.2L535.2,224.2c-15.1-12.9-37.8-11.2-50.8,3.9L371,360.3c-12.9,15.1-11.2,37.8,3.9,50.8l0,0
	c15.1,12.9,37.8,11.2,50.8-3.9L539.1,275C552,259.9,550.3,237.2,535.2,224.2z"/>
<path class="st0" d="M542.8,407.4L542.8,407.4c14.3-13.8,14.8-36.6,1-50.9L421.5,229.2c-13.8-14.3-36.6-14.8-50.9-1l0,0
	c-14.3,13.8-14.8,36.6-1,50.9l122.3,127.3C505.7,420.8,528.5,421.2,542.8,407.4z"/>
<g>
	<path class="st0" d="M242.4,154.5c0-80.7-74.3-145.7-155-146v68c52.5,0.3,78,26.4,78,79s-25.5,70.7-78,71v75
		C168.1,301.2,242.4,235.2,242.4,154.5z"/>
</g>
<g>
	<path class="st1" d="M574.2,321.2c2,56.5,55.5,100.1,112,98.3l-1.7-47.6c-36.7,1.1-55.2-16.6-56.5-53.4s16.1-50.1,52.8-51.6
		l-1.8-52.5C622.6,216.8,572.3,264.8,574.2,321.2z"/>
</g>
<path class="st1" d="M1089,422.4c-9.3,3.6-19.1,6-29,7.1c-15.2,1.8-30.9,0.3-45.2-5.1c-9.5-3.6-18.3-8.8-26-15.4
	c-33.1-28.6-29.1-65.8-29.9-105.2c-0.6-26.7-1.2-53.5-1.7-80.2c-0.8-37.6-1.6-75.2-2.4-112.9c0-17.5,14.2-31.7,31.6-31.7
	c17.5,0,31.7,14.2,31.7,31.7c0,71.8-0.2,143.5-0.2,215.3c0,29.8,2.9,62.8,41.8,62.6c14.2-0.1,26.5-3.2,35.9-14.3
	c5.4-6.4,10.6-13.4,19.5-14.4c14.1-1.6,21.6,10.3,20.7,23.1c-0.7,9.5-11.4,18-18.3,23.3C1108.7,413.2,1099.1,418.5,1089,422.4z"/>
<path class="st1" d="M949,269.5c-9.1-29.4-36.1-52.6-67.3-52.1c-12.8,0.2-24.6,4.3-34.7,11.1c-4.9-6.4-12.6-10.6-21.2-10.6h-11.1
	c-14.7,0-26.6,11.9-26.6,26.6v150.7c0,14.7,11.9,26.6,26.6,26.6h11.1c14.7,0,26.6-11.9,26.6-26.6V266.5c6-8.2,16-12.4,30.4-12.6
	c20.1-0.3,29.7,7.4,32.9,23.6c1.5,7.4,8.1,12.7,15.7,12.6l2.9,0C944.7,289.8,952.1,279.6,949,269.5z"/>
</svg>
